<?xml version="1.0" standalone="no"?>
<!DOCTYPE svg PUBLIC "-//W3C//DTD SVG 1.1//EN" "http://www.w3.org/Graphics/SVG/1.1/DTD/svg11.dtd" >
<svg xmlns="http://www.w3.org/2000/svg" xmlns:xlink="http://www.w3.org/1999/xlink" version="1.1">
<metadata></metadata>
<defs>
<font id="kanitlight" horiz-adv-x="1167" >
<font-face units-per-em="2048" ascent="1536" descent="-512" />
<missing-glyph horiz-adv-x="778" />
<glyph unicode="&#xfb01;" horiz-adv-x="1052" d="M61 838v133h146v112q0 147 101 238.5t263 91.5q136 0 220 -31v-127q-67 23 -177 23q-239 0 -239 -195v-112h534v-971h-168v838h-366v-838h-168v838h-146z" />
<glyph unicode="&#xfb02;" horiz-adv-x="1052" d="M61 838v133h146v112q0 147 101 238.5t263 91.5q136 0 220 -31h118v-1382h-168v838h-366v-838h-168v838h-146zM375 971h366v286q-72 21 -127 21q-239 0 -239 -195v-112z" />
<glyph horiz-adv-x="0" />
<glyph horiz-adv-x="682" />
<glyph unicode="&#xd;" horiz-adv-x="819" />
<glyph unicode=" "  horiz-adv-x="778" />
<glyph unicode="&#x09;" horiz-adv-x="778" />
<glyph unicode="&#xa0;" horiz-adv-x="778" />
<glyph unicode="!" horiz-adv-x="389" d="M102 0h185v133h-185v-133zM111 997v322h168v-322l-13 -682h-143z" />
<glyph unicode="&#x22;" horiz-adv-x="657" d="M102 956v363h152l-27 -363h-125zM403 956v363h152l-27 -363h-125z" />
<glyph unicode="#" horiz-adv-x="1433" d="M102 369v116h222l108 346h-233v119h270l117 369h147l-117 -369h385l117 369h150l-117 -369h180v-119h-217l-110 -346h231v-116h-268l-115 -369h-147l114 369h-387l-115 -369h-145l115 369h-185zM469 485h387l109 346h-385z" />
<glyph unicode="$" horiz-adv-x="1138" d="M102 977q0 155 101.5 248t302.5 110v160h131v-158q195 -6 319 -49v-147q-148 52 -319 55v-467q221 -56 310 -148t89 -237q0 -156 -101 -247.5t-298 -110.5v-162h-131v156q-233 3 -373 61v149q173 -67 373 -67v485q-8 0 -10 2q-217 54 -305.5 137.5t-88.5 229.5zM270 977 q0 -85 50.5 -130.5t185.5 -84.5v428q-236 -28 -236 -213zM637 129q118 14 174.5 64t56.5 151q0 91 -51.5 140.5t-179.5 88.5v-444z" />
<glyph unicode="%" horiz-adv-x="1460" d="M102 1030q0 146 71.5 227.5t211.5 81.5q138 0 209.5 -81.5t71.5 -227.5q0 -129 -72 -205.5t-209 -76.5q-138 0 -210.5 76.5t-72.5 205.5zM221 1032q0 -85 39 -128.5t125 -43.5t125 43.5t39 128.5q0 101 -39 147t-125 46t-125 -46t-39 -147zM299 0l700 1319h158 l-700 -1319h-158zM795 262q0 146 71 227.5t211 81.5q138 0 209.5 -81.5t71.5 -227.5q0 -129 -72 -205.5t-209 -76.5q-138 0 -210 76.5t-72 205.5zM913 264q0 -85 39 -128.5t125 -43.5t125 43.5t39 128.5q0 101 -39 147t-125 46t-125 -46t-39 -147z" />
<glyph unicode="&#x26;" horiz-adv-x="1351" d="M102 311q0 134 82.5 235t239.5 183q-39 39 -52 52.5t-43 46.5t-41.5 52t-27.5 48.5t-21.5 58t-5.5 60.5q0 127 87.5 209.5t238.5 82.5q150 0 235 -79t85 -213q0 -104 -55.5 -181t-174.5 -159l340 -347q35 75 35 193v29h133v-29q0 -169 -72 -287l185 -186l-103 -92 l-163 162q-137 -170 -451 -170q-205 0 -328 89.5t-123 241.5zM264 315q0 -103 79.5 -159t209.5 -56q228 0 348 144l-375 383q-138 -63 -200 -134.5t-62 -177.5zM373 1040q0 -60 38.5 -111t133.5 -141q105 66 149.5 119t44.5 133q0 170 -180 170q-94 0 -140 -46.5t-46 -123.5 z" />
<glyph unicode="'" horiz-adv-x="356" d="M102 956v363h152l-27 -363h-125z" />
<glyph unicode="(" horiz-adv-x="634" d="M102 621q0 107 14.5 210t46 206.5t88 195t132.5 156.5h190q-303 -257 -303 -768t303 -768h-190q-76 64 -132.5 155.5t-88 194.5t-46 207t-14.5 211z" />
<glyph unicode=")" horiz-adv-x="634" d="M61 -147q304 258 304 768t-304 768h193q99 -86 164 -220t89.5 -268.5t24.5 -279.5q0 -146 -24.5 -281t-89.5 -268.5t-164 -218.5h-193z" />
<glyph unicode="*" horiz-adv-x="876" d="M102 1073l54 111l225 -109l-8 244h133l-8 -244l223 109l53 -111l-248 -100l191 -211l-103 -76l-176 229l-176 -229l-102 76l188 211z" />
<glyph unicode="+" horiz-adv-x="976" d="M102 483v133h318v316h137v-316h317v-133h-317v-303h-137v303h-318z" />
<glyph unicode="," horiz-adv-x="413" d="M102 -246l58 363h151l-86 -363h-123z" />
<glyph unicode="-" horiz-adv-x="976" d="M102 483v133h772v-133h-772z" />
<glyph unicode="." horiz-adv-x="356" d="M102 0v141h152v-141h-152z" />
<glyph unicode="/" horiz-adv-x="854" d="M102 0l480 1356h170l-480 -1356h-170z" />
<glyph unicode="0" horiz-adv-x="1325" d="M102 643q0 170 29.5 295.5t95 217t174.5 137.5t263 46q153 0 261.5 -46t173.5 -137.5t94.5 -217t29.5 -295.5q0 -663 -559 -663q-562 0 -562 663zM270 643q0 -520 394 -520q106 0 182.5 36.5t121.5 106.5t66 163t21 214q0 279 -89 416t-302 137q-215 0 -304.5 -137 t-89.5 -416z" />
<glyph unicode="1" horiz-adv-x="622" d="M102 1139v141l377 59v-1339h-168v1176z" />
<glyph unicode="2" horiz-adv-x="1036" d="M102 0v90q48 118 139.5 222t223.5 214q121 101 177 160.5t83 121t27 144.5q0 124 -65 184t-226 60q-154 0 -307 -59v149q150 53 333 53q210 0 321.5 -102.5t111.5 -284.5q0 -58 -14 -110t-35 -92.5t-59.5 -86.5t-74 -80t-92.5 -85q-12 -11 -49 -43.5t-51.5 -45t-46 -41.5 t-47 -45t-40.5 -43.5t-40 -48.5t-32 -47.5t-30 -52.5h625v-131h-832z" />
<glyph unicode="3" horiz-adv-x="1052" d="M102 35v147q150 -59 334 -59q180 0 263 54.5t83 184.5q0 242 -303 242h-190l16 127h158q145 0 218 63.5t73 182.5q0 113 -76 166t-238 53q-165 0 -313 -59v145q59 24 153 40.5t183 16.5q227 0 343 -98t116 -262q0 -107 -55 -192t-165 -117q125 -28 186.5 -110.5 t61.5 -197.5q0 -189 -130 -285.5t-363 -96.5q-91 0 -193 16t-162 39z" />
<glyph unicode="4" horiz-adv-x="1107" d="M61 303v127l697 889h149v-879h140v-137h-140v-303h-168v303h-678zM229 436h533v682z" />
<glyph unicode="5" horiz-adv-x="1048" d="M102 655v117l35 547h715l-16 -131h-557l-27 -400h248q229 0 337.5 -97.5t108.5 -297.5q0 -196 -125 -304.5t-362 -108.5q-96 0 -193 14.5t-157 40.5v149q150 -61 331 -61q176 0 257 65t81 205q0 137 -64 199.5t-231 62.5h-381z" />
<glyph unicode="6" horiz-adv-x="1165" d="M102 481v312q0 247 144 396.5t389 149.5q176 0 303 -43v-145q-124 45 -295 45q-193 0 -287 -98.5t-94 -274.5v-100q76 56 172.5 85.5t181.5 29.5q223 0 335 -109t112 -317q0 -200 -121.5 -316t-357.5 -116q-240 0 -361 121.5t-121 379.5zM262 434q0 -321 322 -321 q161 0 244 78t83 217q0 73 -14.5 125.5t-49 93t-95.5 60.5t-150 20q-186 0 -340 -113v-160z" />
<glyph unicode="7" horiz-adv-x="1019" d="M82 1188v131h856v-117l-508 -1202h-170l502 1188h-680z" />
<glyph unicode="8" horiz-adv-x="1196" d="M102 348q0 121 66 210t188 124q-110 35 -163.5 112t-53.5 177q0 172 117 270t342 98q230 0 344.5 -97.5t114.5 -270.5q0 -106 -54.5 -187.5t-173.5 -121.5q137 -35 201 -112.5t64 -201.5q0 -182 -126 -275t-370 -93q-243 0 -369.5 93t-126.5 275zM254 352 q0 -239 344 -239t344 237q0 104 -60.5 156t-189.5 78l-178 37q-128 -26 -194 -89t-66 -180zM291 971q0 -88 55 -147t154 -79l155 -30q131 32 190.5 89.5t59.5 164.5q0 117 -78.5 177t-228.5 60t-228.5 -59t-78.5 -176z" />
<glyph unicode="9" horiz-adv-x="1165" d="M102 907q0 200 122 316t358 116q240 0 360.5 -121.5t120.5 -379.5v-312q0 -247 -144 -396.5t-389 -149.5q-176 0 -303 43v145q124 -45 295 -45q193 0 287 98.5t94 274.5v100q-76 -56 -172.5 -85.5t-181.5 -29.5q-223 0 -335 109t-112 317zM254 911q0 -73 14.5 -125.5 t49 -93t95.5 -60.5t150 -20q186 0 340 113v160q0 162 -79.5 241.5t-241.5 79.5q-161 0 -244.5 -78t-83.5 -217z" />
<glyph unicode=":" horiz-adv-x="354" d="M102 57v142h150v-142h-150zM102 674v141h150v-141h-150z" />
<glyph unicode=";" horiz-adv-x="413" d="M102 -211l58 363h151l-86 -363h-123zM164 674v141h147v-141h-147z" />
<glyph unicode="&#x3c;" horiz-adv-x="1120" d="M102 537v137l916 422v-158l-739 -332l739 -334v-157z" />
<glyph unicode="=" horiz-adv-x="987" d="M102 344v123h783v-123h-783zM102 637v121h783v-121h-783z" />
<glyph unicode="&#x3e;" horiz-adv-x="1120" d="M102 115v157l742 334l-742 332v158l916 -422v-137z" />
<glyph unicode="?" horiz-adv-x="1009" d="M102 1122v144q140 73 367 73q215 0 326.5 -96t111.5 -270q0 -103 -48.5 -173t-156.5 -159q-11 -9 -42 -34.5t-39.5 -33t-31.5 -29t-29.5 -32t-20.5 -31t-18 -37t-8.5 -39.5t-4.5 -49v-39h-168v48q0 38 7.5 72.5t24.5 65.5t33 54t45 51t47 44t53 44t50 41q67 59 103 112.5 t36 121.5q0 121 -68.5 173t-240.5 52q-177 0 -328 -74zM332 0h184v133h-184v-133z" />
<glyph unicode="@" horiz-adv-x="1572" d="M102 385q0 351 185.5 520.5t537.5 169.5q318 0 481.5 -143t163.5 -416q0 -204 -90 -321t-272 -117h-35q-119 -119 -330 -119q-139 0 -222 70t-83 188q0 121 76 200t234 79h260v41q0 107 -44 143.5t-176 36.5q-133 0 -251 -41v110q105 45 282 45q161 0 238.5 -70.5 t77.5 -221.5v-340q104 0 149 77t45 240q0 219 -120.5 321.5t-383.5 102.5q-300 0 -440.5 -128.5t-140.5 -428.5q0 -121 28 -212t75.5 -148.5t119.5 -93.5t151 -50t179 -14q227 0 354 39v-137q-159 -37 -350 -37q-122 0 -224 21t-191.5 69.5t-151 122.5t-97 186.5 t-35.5 255.5zM569 215q0 -77 45.5 -111t143.5 -34q171 0 250 104v209h-240q-112 0 -155.5 -42t-43.5 -126z" />
<glyph unicode="A" horiz-adv-x="1402" d="M102 0l502 1319h197l499 -1319h-172l-139 362h-573l-140 -362h-174zM444 496h514l-258 678z" />
<glyph unicode="B" horiz-adv-x="1284" d="M143 0v1319h611q376 0 376 -348q0 -212 -165 -291q217 -54 217 -303q0 -377 -396 -377h-643zM311 127h447q134 0 195 59t61 197q0 119 -63.5 175t-219.5 56h-420v-487zM311 741h432q230 0 230 217q0 120 -56.5 176t-203.5 56h-402v-449z" />
<glyph unicode="C" horiz-adv-x="1218" d="M102 631q0 164 36.5 292.5t112 222.5t197 143.5t285.5 49.5q213 0 383 -61v-148q-175 66 -368 66q-256 0 -367 -143.5t-111 -421.5q0 -508 482 -508q207 0 364 59v-149q-170 -53 -381 -53q-312 0 -472.5 174t-160.5 477z" />
<glyph unicode="D" horiz-adv-x="1314" d="M143 0v1319h516q289 0 421 -157t132 -511q0 -340 -131 -495.5t-422 -155.5h-516zM311 131h318q88 0 151 13.5t115 47.5t83.5 93t48.5 149.5t17 216.5q0 209 -42.5 325.5t-130 163t-242.5 46.5h-318v-1055z" />
<glyph unicode="E" horiz-adv-x="1136" d="M143 0v1319h891v-133h-723v-461h650v-131h-650v-463h723v-131h-891z" />
<glyph unicode="F" horiz-adv-x="1069" d="M143 0v1319h865v-133h-697v-461h621v-131h-621v-594h-168z" />
<glyph unicode="G" horiz-adv-x="1308" d="M102 631q0 164 36.5 292.5t112 222.5t197 143.5t285.5 49.5q213 0 383 -61v-148q-175 66 -368 66q-256 0 -367 -143.5t-111 -421.5q0 -251 115 -379.5t360 -128.5q181 0 316 53v420h-352v115h497v-627q-163 -104 -471 -104q-312 0 -472.5 174t-160.5 477z" />
<glyph unicode="H" horiz-adv-x="1318" d="M143 0v1319h168v-594h697v594h168v-1319h-168v594h-697v-594h-168z" />
<glyph unicode="I" horiz-adv-x="454" d="M143 0v1319h168v-1319h-168z" />
<glyph unicode="J" horiz-adv-x="874" d="M61 27v143q112 -49 256 -49q142 0 199 59.5t57 194.5v944h168v-957q0 -184 -101 -283t-302 -99q-160 0 -277 47z" />
<glyph unicode="K" horiz-adv-x="1243" d="M143 0v1319h168v-653l617 653h196l-491 -528l508 -791h-180l-435 682l-215 -227v-455h-168z" />
<glyph unicode="L" horiz-adv-x="1075" d="M143 0v1319h168v-1188h703v-131h-871z" />
<glyph unicode="M" horiz-adv-x="1540" d="M143 0v1319h181l446 -916l447 916h180v-1319h-166v1057l-404 -828h-112l-406 828v-1057h-166z" />
<glyph unicode="N" horiz-adv-x="1357" d="M143 0v1319h152l752 -1061v1061h167v-1319h-153l-750 1059v-1059h-168z" />
<glyph unicode="O" horiz-adv-x="1421" d="M102 659q0 352 149 516t460 164q312 0 460 -163.5t148 -516.5t-148 -516t-460 -163q-311 0 -460 163.5t-149 515.5zM270 659q0 -291 105.5 -413.5t335.5 -122.5t335 122t105 414q0 197 -48.5 316t-143.5 170t-248 51q-230 0 -335.5 -122.5t-105.5 -414.5z" />
<glyph unicode="P" horiz-adv-x="1191" d="M143 0v1319h557q214 0 322 -115t108 -311q0 -192 -118 -304t-320 -112h-381v-477h-168zM311 608h355q145 0 221 76t76 209q0 142 -72 217.5t-215 75.5h-365v-578z" />
<glyph unicode="Q" horiz-adv-x="1421" d="M102 659q0 352 149 516t460 164q312 0 460 -163.5t148 -516.5q0 -331 -131 -494.5t-404 -182.5q2 -108 34 -149.5t118 -41.5q70 0 145 21v-142q-83 -22 -178 -22q-276 0 -282 336q-264 22 -391.5 185.5t-127.5 489.5zM270 659q0 -291 105.5 -413.5t335.5 -122.5t335 122 t105 414q0 197 -48.5 316t-143.5 170t-248 51q-230 0 -335.5 -122.5t-105.5 -414.5z" />
<glyph unicode="R" horiz-adv-x="1232" d="M143 0v1319h580q207 0 307 -107.5t100 -302.5q0 -147 -71.5 -242.5t-208.5 -127.5q38 -23 59 -52.5t47 -89.5l172 -397h-172l-168 383q-20 44 -40 67t-57.5 35.5t-100.5 12.5h-279v-498h-168zM311 629h365q287 0 287 280q0 277 -265 277h-387v-557z" />
<glyph unicode="S" horiz-adv-x="1138" d="M102 977q0 171 124 266.5t366 95.5q106 0 205 -15t159 -36v-147q-154 55 -338 55q-173 0 -260.5 -51.5t-87.5 -167.5q0 -99 71 -146t280 -98q158 -38 250.5 -94.5t128.5 -126.5t36 -168q0 -176 -128 -270t-378 -94q-248 0 -397 61v149q179 -67 383 -67q182 0 267 49.5 t85 171.5q0 111 -77.5 162.5t-294.5 103.5q-217 54 -305.5 137.5t-88.5 229.5z" />
<glyph unicode="T" d="M61 1186v133h1045v-133h-438v-1186h-168v1186h-439z" />
<glyph unicode="U" horiz-adv-x="1374" d="M133 483v836h168v-838q0 -179 100 -268.5t287 -89.5q186 0 285.5 89.5t99.5 268.5v838h168v-836q0 -246 -142 -374.5t-411 -128.5q-270 0 -412.5 128.5t-142.5 374.5z" />
<glyph unicode="V" horiz-adv-x="1402" d="M102 1319h174l424 -1149l426 1149h174l-499 -1319h-197z" />
<glyph unicode="W" horiz-adv-x="1763" d="M102 1319h166l248 -1086l285 941v145h137l307 -1086l252 1086h164l-305 -1319h-178l-287 1004l-301 -1004h-180z" />
<glyph unicode="X" horiz-adv-x="1335" d="M102 0l465 655l-458 664h192l367 -539l366 539h193l-459 -664l465 -655h-195l-370 526l-371 -526h-195z" />
<glyph unicode="Y" horiz-adv-x="1314" d="M102 1319h174l381 -684l381 684h174l-471 -827v-492h-168v492z" />
<glyph unicode="Z" horiz-adv-x="1171" d="M102 0v94l754 1092h-719v133h932v-105l-747 -1083h757v-131h-977z" />
<glyph unicode="[" horiz-adv-x="704" d="M102 -203v1649h514l7 -133h-353v-1385h353l-7 -131h-514z" />
<glyph unicode="\" horiz-adv-x="892" d="M102 1356h172l517 -1467h-170z" />
<glyph unicode="]" horiz-adv-x="704" d="M82 -72h352v1385h-352l6 133h514v-1649h-514z" />
<glyph unicode="^" horiz-adv-x="940" d="M102 803l301 475h129l306 -475h-158l-209 352l-209 -352h-160z" />
<glyph unicode="_" horiz-adv-x="1124" d="M102 0h920v-131h-920v131z" />
<glyph unicode="`" horiz-adv-x="501" d="M102 1413h152l145 -344h-135z" />
<glyph unicode="a" horiz-adv-x="1107" d="M102 272q0 140 92.5 221.5t282.5 81.5h338v60q0 83 -21.5 127t-81.5 66t-173 22q-173 0 -324 -53v139q143 55 346 55q209 0 311.5 -85t102.5 -271v-635h-141l-13 111q-64 -67 -154.5 -99t-222.5 -32q-148 0 -245 75.5t-97 216.5zM268 272q0 -85 55.5 -120t163.5 -35 q206 0 328 141v188h-334q-113 0 -163 -42.5t-50 -131.5z" />
<glyph unicode="b" horiz-adv-x="1177" d="M143 0v1380h168v-481q134 92 324 92q440 0 440 -497q0 -258 -114.5 -386t-323.5 -128q-108 0 -189 29.5t-149 92.5l-12 -102h-144zM311 231q107 -116 283 -116q167 0 240 92t73 287t-75.5 278.5t-241.5 83.5q-168 0 -279 -96v-529z" />
<glyph unicode="c" horiz-adv-x="1003" d="M102 485q0 249 136.5 377.5t377.5 128.5q93 0 156.5 -13t126.5 -42v-133q-109 53 -252 53q-187 0 -282 -88.5t-95 -282.5q0 -195 86.5 -282.5t284.5 -87.5q142 0 260 53v-135q-127 -53 -299 -53q-250 0 -375 129.5t-125 375.5z" />
<glyph unicode="d" horiz-adv-x="1177" d="M102 471q0 257 119 388.5t330 131.5q181 0 315 -92v481h168v-1380h-143l-12 102q-68 -63 -149 -92.5t-189 -29.5q-439 0 -439 491zM270 471q0 -191 72 -273.5t242 -82.5q175 0 282 116v529q-111 96 -278 96q-163 0 -240.5 -93.5t-77.5 -291.5z" />
<glyph unicode="e" horiz-adv-x="1091" d="M102 489q0 240 115 371t350 131q207 0 314.5 -110.5t107.5 -290.5v-182h-719q12 -165 97 -229t286 -64q151 0 275 51v-131q-125 -55 -307 -55q-261 0 -390 125t-129 384zM270 528h570v80q0 248 -269 248q-168 0 -234.5 -78.5t-66.5 -249.5z" />
<glyph unicode="f" horiz-adv-x="708" d="M61 838v133h146v141q0 141 78 221t225 80q94 0 178 -31v-127q-67 23 -135 23q-102 0 -140 -36.5t-38 -129.5v-141h262l-8 -133h-254v-838h-168v838h-146z" />
<glyph unicode="g" horiz-adv-x="1120" d="M102 643q0 181 104.5 264.5t323.5 83.5q76 0 168 -20h351l-7 -115h-176q88 -76 88 -213q0 -164 -95.5 -252t-287.5 -88q-43 0 -118 10q-68 -3 -121 -37.5t-53 -85.5q0 -36 28.5 -51.5t100.5 -15.5h268q146 0 223.5 -58.5t77.5 -170.5q0 -138 -113.5 -196t-343.5 -58 q-246 0 -389 51v139q162 -55 381 -55q68 0 110.5 2t82 8.5t60 19t32.5 32.5t12 50q0 53 -38.5 76t-133.5 23h-258q-133 0 -200.5 46t-67.5 134q0 63 39 115.5t112 74.5q-160 76 -160 287zM270 643q0 -115 59 -164t201 -49q144 0 200 47t56 166q0 120 -59 172.5t-197 52.5 t-199 -51.5t-61 -173.5z" />
<glyph unicode="h" d="M143 0v1380h168v-514q152 125 371 125q178 0 265 -86.5t87 -269.5v-635h-168v629q0 126 -55 176.5t-186 50.5q-83 0 -170 -36t-144 -93v-727h-168z" />
<glyph unicode="i" horiz-adv-x="606" d="M143 838l17 133h301v-971h-168v838h-150zM276 1198v154h187v-154h-187z" />
<glyph unicode="j" horiz-adv-x="602" d="M-20 -317q67 -21 124 -21q108 0 147.5 36t39.5 124v1016h-150l17 133h301v-1164q0 -134 -77 -210t-220 -76q-103 0 -182 28v134zM272 1198v154h187v-154h-187z" />
<glyph unicode="k" horiz-adv-x="1085" d="M143 0v1380h168v-837l455 428h195l-398 -385l420 -586h-176l-350 496l-146 -138v-358h-168z" />
<glyph unicode="l" horiz-adv-x="538" d="M143 209v1171h168v-1153q0 -60 20 -83t64 -23q45 0 92 12v-133q-54 -20 -133 -20q-103 0 -157 54t-54 175z" />
<glyph unicode="m" horiz-adv-x="1751" d="M143 0v971h152l10 -111q163 131 352 131q105 0 166 -33.5t92 -99.5q161 133 375 133q166 0 247 -85t81 -261v-645h-166v629q0 126 -53 176.5t-176 50.5q-178 0 -277 -108q12 -53 12 -119v-629h-157v625q0 127 -43 179t-160 52q-78 0 -153.5 -34t-135.5 -91v-731h-166z " />
<glyph unicode="n" d="M143 0v971h152l10 -111q159 131 377 131q184 0 268 -85.5t84 -270.5v-635h-168v629q0 129 -52.5 178t-195.5 49q-89 0 -169 -32.5t-138 -90.5v-733h-168z" />
<glyph unicode="o" horiz-adv-x="1175" d="M102 485q0 506 486 506q485 0 485 -506q0 -251 -117.5 -378t-367.5 -127t-368 127t-118 378zM270 485q0 -191 73.5 -276.5t244.5 -85.5t244 85.5t73 276.5q0 190 -73.5 276.5t-243.5 86.5t-244 -86.5t-74 -276.5z" />
<glyph unicode="p" horiz-adv-x="1177" d="M143 -442v1413h144l12 -103q68 63 149 93t189 30q438 0 438 -491q0 -258 -115 -389t-325 -131q-190 0 -324 92v-514h-168zM311 211q111 -96 279 -96q163 0 240 93.5t77 291.5q0 191 -71.5 273.5t-241.5 82.5q-175 0 -283 -117v-528z" />
<glyph unicode="q" horiz-adv-x="1251" d="M102 459q0 260 116 396t323 136q108 0 189 -30t149 -93l12 103h143v-1204q0 -70 22.5 -95.5t86.5 -25.5q42 0 88 12v-133q-59 -21 -129 -21q-236 0 -236 254v314q-134 -92 -323 -92q-215 0 -328 113t-113 366zM270 459q0 -192 75 -268t243 -76q167 0 278 96v528 q-108 117 -282 117q-165 0 -239.5 -100t-74.5 -297z" />
<glyph unicode="r" horiz-adv-x="729" d="M143 0v971h152l12 -123q72 47 169 85.5t192 57.5v-131q-92 -20 -195 -58.5t-162 -78.5v-723h-168z" />
<glyph unicode="s" horiz-adv-x="935" d="M102 725q0 132 92 199t289 67q153 0 275 -39v-147q-127 43 -248 43q-130 0 -185 -26.5t-55 -94.5q0 -64 45 -92.5t182 -71.5q13 -4 19 -6q90 -28 145 -52.5t96.5 -59t59 -80t17.5 -109.5q0 -276 -385 -276q-195 0 -322 45v147q137 -49 299 -49q132 0 186 28t54 103 q0 18 -2.5 33t-11.5 28t-15.5 22t-24.5 19.5t-29 16.5t-38.5 16.5t-43 15.5t-53 17.5t-57.5 19.5q-61 20 -96.5 34.5t-77.5 38.5t-63.5 50.5t-36.5 67t-15 92.5z" />
<glyph unicode="t" horiz-adv-x="733" d="M61 838v133h148v239l168 52v-291h268l-10 -133h-258v-559q0 -90 40 -127t138 -37q53 0 117 20v-127q-76 -28 -174 -28q-141 0 -215 76t-74 214v568h-148z" />
<glyph unicode="u" d="M133 356v615h168v-621q0 -121 60 -178t188 -57q89 0 169 32.5t138 90.5v733h168v-971h-152l-10 111q-159 -131 -377 -131q-173 0 -262.5 95.5t-89.5 280.5z" />
<glyph unicode="v" horiz-adv-x="1155" d="M102 971h174l302 -815l301 815h174l-381 -971h-189z" />
<glyph unicode="w" horiz-adv-x="1507" d="M102 971h168l191 -781l217 668v113h129l240 -781l190 781h168l-254 -971h-168l-227 705l-232 -705h-168z" />
<glyph unicode="x" horiz-adv-x="1124" d="M102 0l369 494l-356 477h182l264 -363l266 363h181l-353 -477l367 -494h-182l-279 379l-276 -379h-183z" />
<glyph unicode="y" horiz-adv-x="1196" d="M102 971h174l338 -783l349 783h172l-408 -928q-35 -81 -61.5 -134t-63.5 -108.5t-75 -87.5t-89 -52.5t-112 -20.5q-97 0 -168 26v135q56 -20 125 -20q34 0 60.5 5t48.5 19.5t37.5 29t34 45.5t31.5 56.5t35 73.5z" />
<glyph unicode="z" horiz-adv-x="993" d="M102 0v92l572 746h-545v133h748v-105l-564 -735h578v-131h-789z" />
<glyph unicode="{" horiz-adv-x="606" d="M61 555v111q83 10 110.5 56.5t27.5 147.5v351q0 117 51 165t174 48h100v-134h-69q-51 0 -69.5 -19t-18.5 -77v-403q0 -64 -29 -117.5t-90 -73.5q61 -20 90 -72.5t29 -115.5v-406q0 -58 18.5 -77t69.5 -19h69v-133h-100q-123 0 -174 48t-51 165v350q0 101 -27.5 148 t-110.5 57z" />
<glyph unicode="|" horiz-adv-x="372" d="M102 -246v1751h168v-1751h-168z" />
<glyph unicode="}" horiz-adv-x="606" d="M82 -80h70q51 0 69.5 19t18.5 77v406q0 63 28.5 115.5t89.5 72.5q-61 20 -89.5 73.5t-28.5 117.5v403q0 58 -18.5 77t-69.5 19h-70v134h100q123 0 174.5 -48t51.5 -165v-351q0 -101 27 -147.5t110 -56.5v-111q-83 -10 -110 -56.5t-27 -148.5v-350q0 -117 -51.5 -165 t-174.5 -48h-100v133z" />
<glyph unicode="~" horiz-adv-x="1171" d="M102 492v170q36 48 101 77t141 29q65 0 134.5 -22.5t119 -50t113.5 -50t120 -22.5q77 0 132.5 29t105.5 93v-170q-35 -50 -98.5 -78t-139.5 -28q-55 0 -123 22.5t-121.5 50t-120.5 50t-122 22.5q-77 0 -134.5 -29t-107.5 -93z" />
<glyph unicode="&#xa1;" horiz-adv-x="389" d="M102 1137v133h185v-133h-185zM111 -49h168v321l-13 682h-143l-12 -682v-321z" />
<glyph unicode="&#xa2;" horiz-adv-x="1003" d="M102 485q0 228 115.5 354.5t323.5 147.5v160h127v-158q123 -5 231 -53v-133q-103 50 -231 53v-741q124 3 233 53v-135q-98 -42 -233 -51v-158h-127v158q-220 15 -329.5 143.5t-109.5 359.5zM270 485q0 -169 64 -256.5t207 -107.5v727q-271 -45 -271 -363z" />
<glyph unicode="&#xa3;" horiz-adv-x="1030" d="M102 0v133h54q120 0 120 146v354h-143v133h143v252q0 150 97 235.5t252 85.5q144 0 227 -39v-129q-28 15 -79.5 24t-98.5 9q-117 0 -173.5 -45t-56.5 -149v-244h406l-6 -133h-400v-346q0 -112 -55 -154h539v-133h-826z" />
<glyph unicode="&#xa4;" horiz-adv-x="1173" d="M102 219l170 127q-65 86 -65 205q0 120 65 203l-168 129l76 94l172 -135q99 86 234 86q133 0 235 -86l174 135l76 -94l-170 -129q68 -91 68 -203q0 -109 -68 -207l170 -127l-76 -94l-174 133q-100 -84 -233 -84q-132 0 -236 84l-172 -133zM336 551q0 -106 73 -181 t177 -75q106 0 180 75t74 181t-75 181t-179 75q-105 0 -177.5 -75t-72.5 -181z" />
<glyph unicode="&#xa5;" horiz-adv-x="1314" d="M102 1319h174l381 -684l381 684h174l-446 -782h297v-117h-322v-107h322v-116h-322v-197h-168v197h-321v116h321v107h-321v117h295z" />
<glyph unicode="&#xa6;" horiz-adv-x="372" d="M102 -246v635h168v-635h-168zM102 868v637h168v-637h-168z" />
<glyph unicode="&#xa7;" horiz-adv-x="1138" d="M102 934q0 77 37 133q-37 63 -37 143q0 171 123.5 264t366.5 93q106 0 205 -15t159 -36v-148q-154 55 -338 55q-173 0 -260.5 -51.5t-87.5 -167.5q0 -99 73.5 -149.5t277.5 -98.5q166 -40 256 -84t124.5 -98.5t34.5 -138.5q0 -74 -35 -150q35 -62 35 -145 q0 -175 -130.5 -267.5t-375.5 -92.5q-248 0 -397 61v149q179 -67 383 -67q178 0 265 50t87 171q0 38 -9.5 68t-32 54t-49.5 42t-74.5 35t-93 30t-117.5 31q-218 58 -304 129.5t-86 200.5zM260 913q0 -72 61 -107t250 -81q235 -59 310 -143q10 31 10 55q0 75 -67 113.5 t-273 91.5q-118 31 -182 56.5t-99 62.5q-10 -23 -10 -48z" />
<glyph unicode="&#xa8;" horiz-adv-x="724" d="M102 1149v154h160v-154h-160zM463 1149v154h160v-154h-160z" />
<glyph unicode="&#xa9;" horiz-adv-x="1564" d="M102 659q0 138 54 264t145 217t217 145t264 54t264 -54t217 -145t145 -217t54 -264q0 -184 -91 -340.5t-248 -247.5t-341 -91t-341 91t-248 247.5t-91 340.5zM231 659q0 -242 156.5 -399.5t394.5 -157.5q158 0 284 71t197.5 198.5t71.5 287.5q0 241 -156.5 398 t-396.5 157q-238 0 -394.5 -157t-156.5 -398zM322 657q0 114 37 205t102 148.5t150 87.5t184 30q160 0 264 -63v-111q-106 56 -238 56q-364 0 -364 -353q0 -189 85 -271.5t269 -82.5q63 0 130.5 16t117.5 43v-114q-114 -62 -279 -62q-215 0 -336.5 125.5t-121.5 345.5z" />
<glyph unicode="&#xaa;" horiz-adv-x="710" d="M102 938q0 176 215 176h179v25q0 62 -30.5 85t-123.5 23q-88 0 -170 -28v90q82 30 195 30q241 0 241 -198v-350h-100l-8 59q-75 -72 -203 -72q-86 0 -140.5 40t-54.5 120zM211 942q0 -80 117 -80q107 0 168 78v92h-162q-68 0 -95.5 -19.5t-27.5 -70.5z" />
<glyph unicode="&#xab;" horiz-adv-x="1232" d="M102 547v80l521 383l67 -99l-436 -325l436 -324l-67 -98zM543 547v80l520 383l67 -99l-436 -325l436 -324l-67 -98z" />
<glyph unicode="&#xac;" horiz-adv-x="1087" d="M102 621v133h883v-453h-137v320h-746z" />
<glyph unicode="&#xad;" horiz-adv-x="976" d="M102 483v133h772v-133h-772z" />
<glyph unicode="&#xae;" horiz-adv-x="1564" d="M102 659q0 138 54 264t145 217t217 145t264 54t264 -54t217 -145t145 -217t54 -264q0 -184 -91 -340.5t-248 -247.5t-341 -91t-341 91t-248 247.5t-91 340.5zM231 659q0 -242 156.5 -399.5t394.5 -157.5q158 0 284 71t197.5 198.5t71.5 287.5q0 241 -156.5 398 t-396.5 157q-238 0 -394.5 -157t-156.5 -398zM467 229v873h385q138 0 212.5 -70.5t74.5 -193.5q0 -97 -54 -163.5t-151 -86.5q28 -16 43 -36.5t31 -59.5l110 -263h-125l-112 265q-19 43 -44 54t-100 11h-143v-330h-127zM594 666h201q115 0 167 34.5t52 137.5q0 93 -40 125 t-138 32h-242v-329z" />
<glyph unicode="&#xaf;" horiz-adv-x="794" d="M102 1157v121h590v-121h-590z" />
<glyph unicode="&#xb0;" horiz-adv-x="653" d="M102 1253q0 95 66 158.5t158 63.5q95 0 160 -63t65 -159t-65 -158.5t-160 -62.5q-92 0 -158 63t-66 158zM215 1253q0 -49 31.5 -80.5t79.5 -31.5q50 0 82 31.5t32 80.5q0 48 -32.5 80.5t-81.5 32.5q-47 0 -79 -33t-32 -80z" />
<glyph unicode="&#xb1;" horiz-adv-x="976" d="M102 0v133h772v-133h-772zM102 524v133h318v316h137v-316h317v-133h-317v-303h-137v303h-318z" />
<glyph unicode="&#xb2;" horiz-adv-x="614" d="M102 758v65q44 75 162 170q72 60 97.5 95.5t25.5 76.5q0 43 -27 60.5t-92 17.5t-147 -29v97q91 28 180 28q97 0 152 -49.5t55 -124.5q0 -57 -24 -93.5t-93 -100.5q-12 -12 -57 -50t-68 -67h246v-96h-410z" />
<glyph unicode="&#xb3;" horiz-adv-x="620" d="M102 766v92q70 -27 146 -27q79 0 112 20t33 67q0 44 -32.5 63.5t-100.5 19.5h-76l6 84h64q66 0 96.5 21t30.5 68q0 40 -31 56.5t-100 16.5q-67 0 -137 -24v92q70 24 163 24q230 0 230 -159q0 -106 -92 -138q104 -22 104 -129q0 -172 -246 -172q-107 0 -170 25z" />
<glyph unicode="&#xb4;" horiz-adv-x="501" d="M102 1069l146 344h151l-161 -344h-136z" />
<glyph unicode="&#xb6;" horiz-adv-x="1286" d="M102 977q0 127 39 220t112 148.5t169.5 82t218.5 26.5h543v-1612h-168v1481h-205v-1481h-168v676q-120 0 -213.5 22.5t-169.5 73t-117 142.5t-41 221z" />
<glyph unicode="&#xb7;" horiz-adv-x="356" d="M102 512v141h152v-141h-152z" />
<glyph unicode="&#xb8;" horiz-adv-x="641" d="M102 -373q59 -16 129 -16q99 0 142 23.5t43 84.5q0 57 -40 76t-134 19h-76l59 186h119l-33 -98q111 0 169.5 -48t58.5 -137q0 -209 -293 -209q-78 0 -144 17v102z" />
<glyph unicode="&#xb9;" horiz-adv-x="434" d="M102 1192v94l271 53v-581h-119v467z" />
<glyph unicode="&#xba;" horiz-adv-x="747" d="M102 1059q0 137 68.5 208.5t202.5 71.5q136 0 204 -71t68 -209q0 -281 -272 -281q-271 0 -271 281zM215 1059q0 -97 36.5 -144t121.5 -47t121 47t36 144q0 96 -36 142t-121 46q-84 0 -121 -46.5t-37 -141.5z" />
<glyph unicode="&#xbb;" horiz-adv-x="1232" d="M102 262l437 324l-437 325l68 99l520 -383v-80l-520 -383zM543 262l436 324l-436 325l67 99l520 -383v-80l-520 -383z" />
<glyph unicode="&#xbc;" horiz-adv-x="1294" d="M102 1192v94l271 53v-581h-119v467zM205 0l700 1319h158l-701 -1319h-157zM705 119v88l292 375h131v-375h64v-88h-64v-119h-116v119h-307zM819 209h215v278z" />
<glyph unicode="&#xbd;" horiz-adv-x="1290" d="M102 1192v94l271 53v-581h-119v467zM205 0l700 1319h158l-701 -1319h-157zM778 0v66q44 75 162 170q72 60 97.5 95.5t25.5 76.5q0 42 -27 59.5t-92 17.5q-68 0 -147 -28v96q94 29 180 29q97 0 152 -49.5t55 -124.5q0 -57 -24.5 -94.5t-92.5 -100.5q-12 -12 -57 -50 t-68 -67h246v-96h-410z" />
<glyph unicode="&#xbe;" horiz-adv-x="1312" d="M102 766v88q70 -27 146 -27q78 0 111.5 21.5t33.5 69.5q0 86 -133 86h-76l6 79h64q66 0 96.5 22t30.5 69q0 41 -31.5 59t-99.5 18q-67 0 -137 -24v88q70 24 163 24q230 0 230 -159q0 -106 -92 -138q104 -22 104 -129q0 -172 -246 -172q-107 0 -170 25zM223 0l701 1319 h157l-700 -1319h-158zM723 119v88l293 375h131v-375h63v-88h-63v-119h-117v119h-307zM838 209h215v278z" />
<glyph unicode="&#xbf;" horiz-adv-x="1009" d="M143 297q0 103 48.5 173t156.5 159q13 11 42 35t39.5 33t32 29t29.5 31t21 31t18 37t9 39.5t4 48.5v39h168v-47q0 -38 -7.5 -72.5t-25 -65.5t-33 -54.5t-45 -51.5t-47 -43.5t-52.5 -44.5t-50 -41q-68 -59 -104 -112t-36 -121q0 -121 69 -173t241 -52q178 0 327 73v-143 q-141 -74 -366 -74q-215 0 -327 96.5t-112 270.5zM535 1137v133h184v-133h-184z" />
<glyph unicode="&#xc0;" horiz-adv-x="1402" d="M102 0l502 1319h197l499 -1319h-172l-139 362h-573l-140 -362h-174zM444 496h514l-258 678zM444 1753h152l145 -344h-135z" />
<glyph unicode="&#xc1;" horiz-adv-x="1402" d="M102 0l502 1319h197l499 -1319h-172l-139 362h-573l-140 -362h-174zM444 496h514l-258 678zM598 1409l145 344h152l-162 -344h-135z" />
<glyph unicode="&#xc2;" horiz-adv-x="1402" d="M102 0l502 1319h197l499 -1319h-172l-139 362h-573l-140 -362h-174zM397 1409l236 303h135l236 -303h-146l-158 209l-157 -209h-146zM444 496h514l-258 678z" />
<glyph unicode="&#xc3;" horiz-adv-x="1402" d="M102 0l502 1319h197l499 -1319h-172l-139 362h-573l-140 -362h-174zM389 1446v129q24 27 72.5 44t97.5 17q58 0 152.5 -38.5t142.5 -38.5q105 0 158 73v-131q-20 -28 -63 -44.5t-95 -16.5q-55 0 -154 39t-141 39q-109 0 -170 -72zM444 496h514l-258 678z" />
<glyph unicode="&#xc4;" horiz-adv-x="1402" d="M102 0l502 1319h197l499 -1319h-172l-139 362h-573l-140 -362h-174zM440 1454v154h160v-154h-160zM444 496h514l-258 678zM801 1454v154h160v-154h-160z" />
<glyph unicode="&#xc5;" horiz-adv-x="1402" d="M102 0l486 1274q-53 28 -83 78.5t-30 113.5q0 94 63 158t160 64q100 0 164 -64t64 -158q0 -61 -29 -111t-80 -79l483 -1276h-172l-139 362h-573l-140 -362h-174zM444 496h514l-258 678zM573 1466q0 -53 35.5 -89t89.5 -36q56 0 91.5 36t35.5 89t-35.5 89t-91.5 36 q-54 0 -89.5 -36t-35.5 -89z" />
<glyph unicode="&#xc6;" horiz-adv-x="1720" d="M102 0l502 1319h1014v-133h-612v-461h538v-131h-538v-463h612v-131h-780v365h-416l-139 -365h-181zM473 496h365v690h-105z" />
<glyph unicode="&#xc7;" horiz-adv-x="1218" d="M102 631q0 164 36.5 292.5t112 222.5t197 143.5t285.5 49.5q213 0 383 -61v-148q-175 66 -368 66q-256 0 -367 -143.5t-111 -421.5q0 -508 482 -508q207 0 364 59v-149q-162 -50 -356 -53l-27 -78q111 0 169.5 -48t58.5 -137q0 -209 -293 -209q-78 0 -144 17v102 q59 -16 129 -16q99 0 142 23.5t43 84.5q0 57 -40 76t-134 19h-76l53 170q-266 27 -402.5 198t-136.5 449z" />
<glyph unicode="&#xc8;" horiz-adv-x="1136" d="M143 0v1319h891v-133h-723v-461h650v-131h-650v-463h723v-131h-891zM365 1753h151l146 -344h-136z" />
<glyph unicode="&#xc9;" horiz-adv-x="1136" d="M143 0v1319h891v-133h-723v-461h650v-131h-650v-463h723v-131h-891zM489 1409l146 344h151l-161 -344h-136z" />
<glyph unicode="&#xca;" horiz-adv-x="1136" d="M143 0v1319h891v-133h-723v-461h650v-131h-650v-463h723v-131h-891zM258 1409l236 303h135l235 -303h-145l-158 209l-158 -209h-145z" />
<glyph unicode="&#xcb;" horiz-adv-x="1136" d="M143 0v1319h891v-133h-723v-461h650v-131h-650v-463h723v-131h-891zM313 1456v154h160v-154h-160zM674 1456v154h160v-154h-160z" />
<glyph unicode="&#xcc;" horiz-adv-x="454" d="M2 1753h152l145 -344h-135zM143 0v1319h168v-1319h-168z" />
<glyph unicode="&#xcd;" horiz-adv-x="454" d="M143 0v1319h168v-1319h-168zM143 1409l146 344h151l-161 -344h-136z" />
<glyph unicode="&#xce;" horiz-adv-x="454" d="M-76 1409l236 303h135l235 -303h-145l-158 209l-157 -209h-146zM143 0v1319h168v-1319h-168z" />
<glyph unicode="&#xcf;" horiz-adv-x="454" d="M-33 1460v154h160v-154h-160zM143 0v1319h168v-1319h-168zM328 1460v154h159v-154h-159z" />
<glyph unicode="&#xd0;" horiz-adv-x="1359" d="M41 582v133h147v604h517q289 0 420.5 -157t131.5 -511q0 -340 -131 -495.5t-421 -155.5h-517v582h-147zM356 131h318q88 0 151 13.5t115.5 47.5t84 93t48.5 149.5t17 216.5q0 209 -43 325.5t-130.5 163t-242.5 46.5h-318v-471h371v-133h-371v-451z" />
<glyph unicode="&#xd1;" horiz-adv-x="1357" d="M143 0v1319h152l752 -1061v1061h167v-1319h-153l-750 1059v-1059h-168zM362 1456v129q24 27 73 44.5t97 17.5q58 0 152.5 -39t142.5 -39q105 0 158 73v-131q-20 -28 -63 -44.5t-95 -16.5q-55 0 -154 39t-141 39q-109 0 -170 -72z" />
<glyph unicode="&#xd2;" horiz-adv-x="1421" d="M102 659q0 352 149 516t460 164q312 0 460 -163.5t148 -516.5t-148 -516t-460 -163q-311 0 -460 163.5t-149 515.5zM270 659q0 -291 105.5 -413.5t335.5 -122.5t335 122t105 414q0 197 -48.5 316t-143.5 170t-248 51q-230 0 -335.5 -122.5t-105.5 -414.5zM494 1753h151 l146 -344h-136z" />
<glyph unicode="&#xd3;" horiz-adv-x="1421" d="M102 659q0 352 149 516t460 164q312 0 460 -163.5t148 -516.5t-148 -516t-460 -163q-311 0 -460 163.5t-149 515.5zM270 659q0 -291 105.5 -413.5t335.5 -122.5t335 122t105 414q0 197 -48.5 316t-143.5 170t-248 51q-230 0 -335.5 -122.5t-105.5 -414.5zM639 1409 l145 344h152l-162 -344h-135z" />
<glyph unicode="&#xd4;" horiz-adv-x="1421" d="M102 659q0 352 149 516t460 164q312 0 460 -163.5t148 -516.5t-148 -516t-460 -163q-311 0 -460 163.5t-149 515.5zM270 659q0 -291 105.5 -413.5t335.5 -122.5t335 122t105 414q0 197 -48.5 316t-143.5 170t-248 51q-230 0 -335.5 -122.5t-105.5 -414.5zM408 1409 l235 303h135l236 -303h-146l-157 209l-158 -209h-145z" />
<glyph unicode="&#xd5;" horiz-adv-x="1421" d="M102 659q0 352 149 516t460 164q312 0 460 -163.5t148 -516.5t-148 -516t-460 -163q-311 0 -460 163.5t-149 515.5zM270 659q0 -291 105.5 -413.5t335.5 -122.5t335 122t105 414q0 197 -48.5 316t-143.5 170t-248 51q-230 0 -335.5 -122.5t-105.5 -414.5zM399 1466v129 q24 27 73 44.5t97 17.5q58 0 152.5 -39t142.5 -39q104 0 158 74v-131q-20 -28 -63 -45t-95 -17q-55 0 -154 39t-141 39q-109 0 -170 -72z" />
<glyph unicode="&#xd6;" horiz-adv-x="1421" d="M102 659q0 352 149 516t460 164q312 0 460 -163.5t148 -516.5t-148 -516t-460 -163q-311 0 -460 163.5t-149 515.5zM270 659q0 -291 105.5 -413.5t335.5 -122.5t335 122t105 414q0 197 -48.5 316t-143.5 170t-248 51q-230 0 -335.5 -122.5t-105.5 -414.5zM451 1456v154 h159v-154h-159zM811 1456v154h160v-154h-160z" />
<glyph unicode="&#xd7;" horiz-adv-x="839" d="M102 760l88 88l228 -232l231 230l88 -88l-229 -232l229 -229l-84 -86l-229 231l-223 -221l-88 88l221 223z" />
<glyph unicode="&#xd8;" horiz-adv-x="1421" d="M102 659q0 352 149 516t460 164q75 0 161 -14l35 94h148l-49 -131q158 -65 235.5 -219.5t77.5 -409.5q0 -353 -148 -516t-460 -163q-93 0 -181 16l-36 -105h-148l53 144q-151 67 -224 221t-73 403zM270 659q0 -192 45 -308.5t138 -170.5l368 1008q-70 8 -110 8 q-230 0 -335.5 -122.5t-105.5 -414.5zM582 133q65 -10 129 -10q230 0 335 122t105 414q0 197 -49 316t-148 172z" />
<glyph unicode="&#xd9;" horiz-adv-x="1374" d="M133 483v836h168v-838q0 -179 100 -268.5t287 -89.5q186 0 285.5 89.5t99.5 268.5v838h168v-836q0 -246 -142 -374.5t-411 -128.5q-270 0 -412.5 128.5t-142.5 374.5zM492 1753h151l145 -344h-135z" />
<glyph unicode="&#xda;" horiz-adv-x="1374" d="M133 483v836h168v-838q0 -179 100 -268.5t287 -89.5q186 0 285.5 89.5t99.5 268.5v838h168v-836q0 -246 -142 -374.5t-411 -128.5q-270 0 -412.5 128.5t-142.5 374.5zM604 1409l146 344h151l-162 -344h-135z" />
<glyph unicode="&#xdb;" horiz-adv-x="1374" d="M133 483v836h168v-838q0 -179 100 -268.5t287 -89.5q186 0 285.5 89.5t99.5 268.5v838h168v-836q0 -246 -142 -374.5t-411 -128.5q-270 0 -412.5 128.5t-142.5 374.5zM383 1409l235 303h136l235 -303h-145l-158 209l-158 -209h-145z" />
<glyph unicode="&#xdc;" horiz-adv-x="1374" d="M133 483v836h168v-838q0 -179 100 -268.5t287 -89.5q186 0 285.5 89.5t99.5 268.5v838h168v-836q0 -246 -142 -374.5t-411 -128.5q-270 0 -412.5 128.5t-142.5 374.5zM401 1456v154h160v-154h-160zM762 1456v154h160v-154h-160z" />
<glyph unicode="&#xdd;" horiz-adv-x="1314" d="M102 1319h174l381 -684l381 684h174l-471 -827v-492h-168v492zM565 1409l146 344h151l-162 -344h-135z" />
<glyph unicode="&#xde;" horiz-adv-x="1191" d="M143 0v1319h168v-242h389q214 0 322 -113.5t108 -308.5q0 -192 -118 -305.5t-320 -113.5h-381v-236h-168zM311 367h355q145 0 221 77t76 211q0 141 -72 215t-215 74h-365v-577z" />
<glyph unicode="&#xdf;" horiz-adv-x="1284" d="M133 0v958q0 215 136 345.5t366 130.5q122 0 218 -31.5t155 -86.5t89.5 -126.5t30.5 -155.5q0 -111 -46.5 -193t-125.5 -118q105 -31 165.5 -119t60.5 -219q0 -193 -107 -299t-305 -106q-176 0 -295 45v143q104 -45 268 -45q128 0 199.5 70t71.5 200t-67 197t-218 67 h-168v127h172q122 0 180 68t58 182q0 60 -16.5 105t-54 80t-104 53t-161.5 18q-334 0 -334 -338v-952h-168z" />
<glyph unicode="&#xe0;" horiz-adv-x="1107" d="M102 272q0 140 92.5 221.5t282.5 81.5h338v60q0 83 -21.5 127t-81.5 66t-173 22q-173 0 -324 -53v139q143 55 346 55q209 0 311.5 -85t102.5 -271v-635h-141l-13 111q-64 -67 -154.5 -99t-222.5 -32q-148 0 -245 75.5t-97 216.5zM268 272q0 -85 55.5 -120t163.5 -35 q206 0 328 141v188h-334q-113 0 -163 -42.5t-50 -131.5zM373 1413h151l146 -344h-135z" />
<glyph unicode="&#xe1;" horiz-adv-x="1107" d="M102 272q0 140 92.5 221.5t282.5 81.5h338v60q0 83 -21.5 127t-81.5 66t-173 22q-173 0 -324 -53v139q143 55 346 55q209 0 311.5 -85t102.5 -271v-635h-141l-13 111q-64 -67 -154.5 -99t-222.5 -32q-148 0 -245 75.5t-97 216.5zM268 272q0 -85 55.5 -120t163.5 -35 q206 0 328 141v188h-334q-113 0 -163 -42.5t-50 -131.5zM500 1069l145 344h152l-162 -344h-135z" />
<glyph unicode="&#xe2;" horiz-adv-x="1107" d="M102 272q0 140 92.5 221.5t282.5 81.5h338v60q0 83 -21.5 127t-81.5 66t-173 22q-173 0 -324 -53v139q143 55 346 55q209 0 311.5 -85t102.5 -271v-635h-141l-13 111q-64 -67 -154.5 -99t-222.5 -32q-148 0 -245 75.5t-97 216.5zM268 272q0 -85 55.5 -120t163.5 -35 q206 0 328 141v188h-334q-113 0 -163 -42.5t-50 -131.5zM274 1069l236 303h135l236 -303h-146l-157 209l-158 -209h-146z" />
<glyph unicode="&#xe3;" horiz-adv-x="1107" d="M102 272q0 140 92.5 221.5t282.5 81.5h338v60q0 83 -21.5 127t-81.5 66t-173 22q-173 0 -324 -53v139q143 55 346 55q209 0 311.5 -85t102.5 -271v-635h-141l-13 111q-64 -67 -154.5 -99t-222.5 -32q-148 0 -245 75.5t-97 216.5zM262 1116v129q24 27 73 44.5t97 17.5 q58 0 152.5 -39t142.5 -39q104 0 158 74v-132q-20 -28 -63 -44.5t-95 -16.5q-55 0 -154 39t-141 39q-109 0 -170 -72zM268 272q0 -85 55.5 -120t163.5 -35q206 0 328 141v188h-334q-113 0 -163 -42.5t-50 -131.5z" />
<glyph unicode="&#xe4;" horiz-adv-x="1107" d="M102 272q0 140 92.5 221.5t282.5 81.5h338v60q0 83 -21.5 127t-81.5 66t-173 22q-173 0 -324 -53v139q143 55 346 55q209 0 311.5 -85t102.5 -271v-635h-141l-13 111q-64 -67 -154.5 -99t-222.5 -32q-148 0 -245 75.5t-97 216.5zM268 272q0 -85 55.5 -120t163.5 -35 q206 0 328 141v188h-334q-113 0 -163 -42.5t-50 -131.5zM328 1116v154h159v-154h-159zM688 1116v154h160v-154h-160z" />
<glyph unicode="&#xe5;" horiz-adv-x="1107" d="M102 272q0 140 92.5 221.5t282.5 81.5h338v60q0 83 -21.5 127t-81.5 66t-173 22q-173 0 -324 -53v139q143 55 346 55q209 0 311.5 -85t102.5 -271v-635h-141l-13 111q-64 -67 -154.5 -99t-222.5 -32q-148 0 -245 75.5t-97 216.5zM268 272q0 -85 55.5 -120t163.5 -35 q206 0 328 141v188h-334q-113 0 -163 -42.5t-50 -131.5zM356 1288q0 93 63.5 157t160.5 64q100 0 163.5 -63.5t63.5 -157.5t-63.5 -156.5t-163.5 -62.5q-97 0 -160.5 63t-63.5 156zM455 1288q0 -53 35.5 -89t89.5 -36q56 0 91.5 36t35.5 89t-35.5 89t-91.5 36 q-54 0 -89.5 -36t-35.5 -89z" />
<glyph unicode="&#xe6;" horiz-adv-x="1804" d="M102 272q0 140 92.5 221.5t282.5 81.5h338v60q0 83 -21.5 127t-81.5 66t-173 22q-173 0 -324 -53v139q143 55 346 55q263 0 359 -149q126 149 360 149q207 0 314.5 -110.5t107.5 -290.5v-182h-719q12 -165 97 -229t286 -64q150 0 274 51v-131q-125 -55 -307 -55 q-157 0 -260 44.5t-166 139.5q-33 -38 -69.5 -67.5t-91.5 -57.5t-131.5 -43.5t-170.5 -15.5q-148 0 -245 75.5t-97 216.5zM268 272q0 -85 55.5 -120t163.5 -35q113 0 190 35.5t138 105.5v188h-334q-113 0 -163 -42.5t-50 -131.5zM983 528h569v80q0 122 -64.5 185t-203.5 63 q-168 0 -234.5 -78.5t-66.5 -249.5z" />
<glyph unicode="&#xe7;" horiz-adv-x="1003" d="M102 485q0 249 136.5 377.5t377.5 128.5q93 0 156.5 -13t126.5 -42v-133q-109 53 -252 53q-187 0 -282 -88.5t-95 -282.5q0 -195 86.5 -282.5t284.5 -87.5q142 0 260 53v-135q-116 -47 -262 -53l-27 -78q111 0 169.5 -48t58.5 -137q0 -209 -293 -209q-78 0 -144 17v102 q59 -16 129 -16q99 0 142 23.5t43 84.5q0 57 -40 76t-134 19h-76l53 170q-210 20 -314 147.5t-104 353.5z" />
<glyph unicode="&#xe8;" horiz-adv-x="1091" d="M102 489q0 240 115 371t350 131q207 0 314.5 -110.5t107.5 -290.5v-182h-719q12 -165 97 -229t286 -64q151 0 275 51v-131q-125 -55 -307 -55q-261 0 -390 125t-129 384zM270 528h570v80q0 248 -269 248q-168 0 -234.5 -78.5t-66.5 -249.5zM317 1413h152l145 -344h-135z " />
<glyph unicode="&#xe9;" horiz-adv-x="1091" d="M102 489q0 240 115 371t350 131q207 0 314.5 -110.5t107.5 -290.5v-182h-719q12 -165 97 -229t286 -64q151 0 275 51v-131q-125 -55 -307 -55q-261 0 -390 125t-129 384zM270 528h570v80q0 248 -269 248q-168 0 -234.5 -78.5t-66.5 -249.5zM465 1069l145 344h152 l-162 -344h-135z" />
<glyph unicode="&#xea;" horiz-adv-x="1091" d="M102 489q0 240 115 371t350 131q207 0 314.5 -110.5t107.5 -290.5v-182h-719q12 -165 97 -229t286 -64q151 0 275 51v-131q-125 -55 -307 -55q-261 0 -390 125t-129 384zM242 1069l235 303h135l236 -303h-146l-157 209l-158 -209h-145zM270 528h570v80q0 248 -269 248 q-168 0 -234.5 -78.5t-66.5 -249.5z" />
<glyph unicode="&#xeb;" horiz-adv-x="1091" d="M102 489q0 240 115 371t350 131q207 0 314.5 -110.5t107.5 -290.5v-182h-719q12 -165 97 -229t286 -64q151 0 275 51v-131q-125 -55 -307 -55q-261 0 -390 125t-129 384zM270 528h570v80q0 248 -269 248q-168 0 -234.5 -78.5t-66.5 -249.5zM281 1116v154h159v-154h-159z M641 1116v154h160v-154h-160z" />
<glyph unicode="&#xec;" horiz-adv-x="604" d="M143 838l17 133h301v-971h-168v838h-150zM156 1413h151l146 -344h-136z" />
<glyph unicode="&#xed;" horiz-adv-x="604" d="M143 838l17 133h301v-971h-168v838h-150zM287 1069l145 344h152l-162 -344h-135z" />
<glyph unicode="&#xee;" horiz-adv-x="604" d="M37 1069l235 303h136l235 -303h-145l-158 209l-158 -209h-145zM143 838l17 133h301v-971h-168v838h-150z" />
<glyph unicode="&#xef;" horiz-adv-x="604" d="M55 1116v154h160v-154h-160zM143 838l17 133h301v-971h-168v838h-150zM416 1116v154h159v-154h-159z" />
<glyph unicode="&#xf0;" horiz-adv-x="1173" d="M102 401q0 205 117.5 315.5t335.5 110.5q84 0 178 -29t170 -85v94q0 173 -49 268l-274 -119v107l211 92q-77 59 -218 59q-160 0 -290 -47v127q137 45 311 45q222 0 338 -122l190 83v-108l-131 -57q72 -126 72 -336v-318q0 -258 -120.5 -379.5t-360.5 -121.5 q-238 0 -359 111.5t-121 309.5zM254 401q0 -142 83 -218.5t245 -76.5t241.5 78.5t79.5 243.5v164q-154 113 -319 113q-174 0 -252 -78.5t-78 -225.5z" />
<glyph unicode="&#xf1;" d="M143 0v971h152l10 -111q159 131 377 131q184 0 268 -85.5t84 -270.5v-635h-168v629q0 129 -52.5 178t-195.5 49q-89 0 -169 -32.5t-138 -90.5v-733h-168zM272 1116v129q24 27 73 44.5t97 17.5q58 0 152.5 -39t142.5 -39q104 0 158 74v-132q-20 -28 -63 -44.5t-95 -16.5 q-55 0 -154 39t-141 39q-109 0 -170 -72z" />
<glyph unicode="&#xf2;" horiz-adv-x="1175" d="M102 485q0 506 486 506q485 0 485 -506q0 -251 -117.5 -378t-367.5 -127t-368 127t-118 378zM270 485q0 -191 73.5 -276.5t244.5 -85.5t244 85.5t73 276.5q0 190 -73.5 276.5t-243.5 86.5t-244 -86.5t-74 -276.5zM371 1413h151l146 -344h-136z" />
<glyph unicode="&#xf3;" horiz-adv-x="1175" d="M102 485q0 506 486 506q485 0 485 -506q0 -251 -117.5 -378t-367.5 -127t-368 127t-118 378zM270 485q0 -191 73.5 -276.5t244.5 -85.5t244 85.5t73 276.5q0 190 -73.5 276.5t-243.5 86.5t-244 -86.5t-74 -276.5zM518 1069l146 344h151l-162 -344h-135z" />
<glyph unicode="&#xf4;" horiz-adv-x="1175" d="M102 485q0 506 486 506q485 0 485 -506q0 -251 -117.5 -378t-367.5 -127t-368 127t-118 378zM270 485q0 -191 73.5 -276.5t244.5 -85.5t244 85.5t73 276.5q0 190 -73.5 276.5t-243.5 86.5t-244 -86.5t-74 -276.5zM285 1069l235 303h135l236 -303h-146l-157 209l-158 -209 h-145z" />
<glyph unicode="&#xf5;" horiz-adv-x="1175" d="M102 485q0 506 486 506q485 0 485 -506q0 -251 -117.5 -378t-367.5 -127t-368 127t-118 378zM270 485q0 -191 73.5 -276.5t244.5 -85.5t244 85.5t73 276.5q0 190 -73.5 276.5t-243.5 86.5t-244 -86.5t-74 -276.5zM276 1126v129q24 27 73 44.5t97 17.5q58 0 152.5 -39 t142.5 -39q104 0 158 74v-131q-20 -28 -63 -45t-95 -17q-55 0 -154 39t-141 39q-109 0 -170 -72z" />
<glyph unicode="&#xf6;" horiz-adv-x="1175" d="M102 485q0 506 486 506q485 0 485 -506q0 -251 -117.5 -378t-367.5 -127t-368 127t-118 378zM270 485q0 -191 73.5 -276.5t244.5 -85.5t244 85.5t73 276.5q0 190 -73.5 276.5t-243.5 86.5t-244 -86.5t-74 -276.5zM328 1116v154h159v-154h-159zM688 1116v154h160v-154 h-160z" />
<glyph unicode="&#xf7;" horiz-adv-x="974" d="M102 483v133h770v-133h-770zM414 160v137h145v-137h-145zM414 815v137h145v-137h-145z" />
<glyph unicode="&#xf8;" horiz-adv-x="1175" d="M102 485q0 506 486 506q63 0 110 -8l37 98h148l-49 -135q239 -105 239 -461q0 -251 -117.5 -378t-367.5 -127q-58 0 -107 6l-35 -97h-147l47 131q-244 102 -244 465zM270 485q0 -127 30.5 -205.5t98.5 -117.5l250 682q-40 4 -61 4q-170 0 -244 -86.5t-74 -276.5zM532 125 q18 -2 56 -2q171 0 244 85.5t73 276.5q0 243 -125 318z" />
<glyph unicode="&#xf9;" d="M133 356v615h168v-621q0 -121 60 -178t188 -57q89 0 169 32.5t138 90.5v733h168v-971h-152l-10 111q-159 -131 -377 -131q-173 0 -262.5 95.5t-89.5 280.5zM367 1413h151l146 -344h-136z" />
<glyph unicode="&#xfa;" d="M133 356v615h168v-621q0 -121 60 -178t188 -57q89 0 169 32.5t138 90.5v733h168v-971h-152l-10 111q-159 -131 -377 -131q-173 0 -262.5 95.5t-89.5 280.5zM481 1069l146 344h151l-162 -344h-135z" />
<glyph unicode="&#xfb;" d="M133 356v615h168v-621q0 -121 60 -178t188 -57q89 0 169 32.5t138 90.5v733h168v-971h-152l-10 111q-159 -131 -377 -131q-173 0 -262.5 95.5t-89.5 280.5zM272 1069l236 303h135l236 -303h-146l-158 209l-157 -209h-146z" />
<glyph unicode="&#xfc;" d="M133 356v615h168v-621q0 -121 60 -178t188 -57q89 0 169 32.5t138 90.5v733h168v-971h-152l-10 111q-159 -131 -377 -131q-173 0 -262.5 95.5t-89.5 280.5zM311 1110v154h160v-154h-160zM672 1110v154h159v-154h-159z" />
<glyph unicode="&#xfd;" horiz-adv-x="1196" d="M102 971h174l338 -783l349 783h172l-408 -928q-35 -81 -61.5 -134t-63.5 -108.5t-75 -87.5t-89 -52.5t-112 -20.5q-97 0 -168 26v135q56 -20 125 -20q34 0 60.5 5t48.5 19.5t37.5 29t34 45.5t31.5 56.5t35 73.5zM528 1069l146 344h151l-161 -344h-136z" />
<glyph unicode="&#xfe;" horiz-adv-x="1177" d="M143 -442v1876h170v-535q134 92 324 92q210 0 324 -125.5t114 -382.5q0 -256 -114 -379.5t-326 -123.5q-190 0 -324 92v-514h-168zM311 211q111 -96 279 -96q165 0 241 86t76 282q0 194 -72.5 283.5t-240.5 89.5q-175 0 -283 -117v-528z" />
<glyph unicode="&#xff;" horiz-adv-x="1196" d="M102 971h174l338 -783l349 783h172l-408 -928q-35 -81 -61.5 -134t-63.5 -108.5t-75 -87.5t-89 -52.5t-112 -20.5q-97 0 -168 26v135q56 -20 125 -20q34 0 60.5 5t48.5 19.5t37.5 29t34 45.5t31.5 56.5t35 73.5zM365 1130v154h159v-154h-159zM725 1130v154h160v-154h-160 z" />
<glyph unicode="&#x152;" horiz-adv-x="2144" d="M102 659q0 352 149 516t460 164q294 0 440 -143v123h891v-133h-723v-461h649v-131h-649v-463h723v-131h-891v123q-146 -143 -440 -143q-311 0 -460 163.5t-149 515.5zM270 659q0 -291 105.5 -413.5t335.5 -122.5t335 122t105 414q0 197 -48.5 316t-143.5 170t-248 51 q-230 0 -335.5 -122.5t-105.5 -414.5z" />
<glyph unicode="&#x153;" horiz-adv-x="1894" d="M102 485q0 506 486 506q282 0 401 -172q115 172 381 172q207 0 314.5 -110.5t107.5 -290.5v-182h-719q12 -165 97 -229t286 -64q151 0 275 51v-131q-125 -55 -308 -55q-310 0 -430 174q-118 -174 -405 -174q-250 0 -368 127t-118 378zM270 485q0 -191 73.5 -276.5 t244.5 -85.5t244 85.5t73 276.5q0 190 -73.5 276.5t-243.5 86.5t-244 -86.5t-74 -276.5zM1073 528h569v80q0 122 -64.5 185t-203.5 63q-168 0 -234.5 -78.5t-66.5 -249.5z" />
<glyph unicode="&#x178;" horiz-adv-x="1314" d="M102 1319h174l381 -684l381 684h174l-471 -827v-492h-168v492zM397 1456v154h160v-154h-160zM758 1456v154h160v-154h-160z" />
<glyph unicode="&#x2c6;" horiz-adv-x="811" d="M102 1100l236 303h135l236 -303h-146l-157 209l-158 -209h-146z" />
<glyph unicode="&#x2dc;" horiz-adv-x="827" d="M102 1180v129q24 27 72.5 44t97.5 17q58 0 152.5 -39t142.5 -39q104 0 158 74v-131q-20 -28 -63 -44.5t-95 -16.5q-55 0 -154 38.5t-141 38.5q-110 0 -170 -71z" />
<glyph unicode="&#x2000;" horiz-adv-x="876" />
<glyph unicode="&#x2001;" horiz-adv-x="1753" />
<glyph unicode="&#x2002;" horiz-adv-x="876" />
<glyph unicode="&#x2003;" horiz-adv-x="1753" />
<glyph unicode="&#x2004;" horiz-adv-x="584" />
<glyph unicode="&#x2005;" horiz-adv-x="438" />
<glyph unicode="&#x2006;" horiz-adv-x="292" />
<glyph unicode="&#x2007;" horiz-adv-x="292" />
<glyph unicode="&#x2008;" horiz-adv-x="219" />
<glyph unicode="&#x2009;" horiz-adv-x="350" />
<glyph unicode="&#x200a;" horiz-adv-x="97" />
<glyph unicode="&#x2010;" horiz-adv-x="976" d="M102 483v133h772v-133h-772z" />
<glyph unicode="&#x2011;" horiz-adv-x="976" d="M102 483v133h772v-133h-772z" />
<glyph unicode="&#x2012;" horiz-adv-x="976" d="M102 483v133h772v-133h-772z" />
<glyph unicode="&#x2013;" horiz-adv-x="1198" d="M102 483v133h994v-133h-994z" />
<glyph unicode="&#x2014;" horiz-adv-x="1796" d="M102 483v133h1592v-133h-1592z" />
<glyph unicode="&#x2018;" horiz-adv-x="458" d="M102 965l127 374h127l-100 -374h-154z" />
<glyph unicode="&#x2019;" horiz-adv-x="458" d="M102 965l101 374h153l-127 -374h-127z" />
<glyph unicode="&#x201a;" horiz-adv-x="458" d="M102 -307l101 375h153l-127 -375h-127z" />
<glyph unicode="&#x201c;" horiz-adv-x="727" d="M102 965l127 374h117l-100 -374h-144zM383 965l127 374h115l-101 -374h-141z" />
<glyph unicode="&#x201d;" horiz-adv-x="727" d="M102 965l103 374h141l-127 -374h-117zM383 965l100 374h142l-127 -374h-115z" />
<glyph unicode="&#x201e;" horiz-adv-x="727" d="M102 -244l103 375h141l-127 -375h-117zM383 -244l100 375h142l-127 -375h-115z" />
<glyph unicode="&#x2022;" horiz-adv-x="694" d="M102 588q0 101 71.5 173.5t172.5 72.5q102 0 174 -72t72 -174q0 -103 -71.5 -173.5t-174.5 -70.5q-102 0 -173 71t-71 173z" />
<glyph unicode="&#x2026;" horiz-adv-x="1140" d="M102 0v137h148v-137h-148zM498 0v137h145v-137h-145zM893 0v137h145v-137h-145z" />
<glyph unicode="&#x202f;" horiz-adv-x="350" />
<glyph unicode="&#x2039;" horiz-adv-x="792" d="M102 547v80l521 383l67 -99l-436 -325l436 -324l-67 -98z" />
<glyph unicode="&#x203a;" horiz-adv-x="792" d="M102 262l437 324l-437 325l68 99l520 -383v-80l-520 -383z" />
<glyph unicode="&#x205f;" horiz-adv-x="438" />
<glyph unicode="&#x20ac;" horiz-adv-x="1216" d="M82 399v117h135q-4 70 -4 111q0 73 2 108h-133v117h145q17 115 56 202t104.5 152.5t164.5 99t230 33.5q108 0 186 -14.5t167 -46.5v-145q-87 34 -163 48.5t-177 14.5q-189 0 -281.5 -86.5t-118.5 -257.5h498v-117h-510q-2 -35 -2 -108q0 -76 4 -111h508v-117h-490 q33 -139 128 -207.5t270 -68.5q180 0 334 55v-145q-91 -28 -168 -40.5t-183 -12.5q-462 0 -551 419h-151z" />
<glyph unicode="&#x2122;" horiz-adv-x="1396" d="M102 1210v109h525v-109h-201v-469h-121v469h-203zM676 741v578h117l194 -371l193 371h114v-578h-116v385l-166 -342h-49l-170 342v-385h-117z" />
<glyph unicode="&#x25fc;" horiz-adv-x="972" d="M0 0v973h973v-973h-973z" />
</font>
</defs>
</svg>
